<mxfile host="app.diagrams.net" agent="Mozilla/5.0 (Macintosh; Intel Mac OS X 10_15_7) AppleWebKit/605.1.15 (KHTML, like Gecko) Version/18.3 Safari/605.1.15" version="26.1.0">
  <diagram name="Page-1" id="m80x4wTPJxQTNeBGOMbo">
    <mxGraphModel dx="1034" dy="524" grid="1" gridSize="10" guides="1" tooltips="1" connect="1" arrows="1" fold="1" page="1" pageScale="1" pageWidth="827" pageHeight="1169" math="0" shadow="0">
      <root>
        <mxCell id="0" />
        <mxCell id="1" parent="0" />
        <mxCell id="0gCNLuCdk37qXa7R1mfK-3" value="" style="shape=image;verticalLabelPosition=bottom;labelBackgroundColor=default;verticalAlign=top;aspect=fixed;imageAspect=0;image=https://easydrawingguides.com/wp-content/uploads/2023/03/how-to-draw-a-cartoon-brain-featured-image-1200.png;" parent="1" vertex="1">
          <mxGeometry x="353" y="250" width="120.43" height="105.68" as="geometry" />
        </mxCell>
      </root>
    </mxGraphModel>
  </diagram>
</mxfile>
